<svg width="1600" height="900" viewBox="0 0 1600 900" fill="none" xmlns="http://www.w3.org/2000/svg">
  <rect width="1600" height="900" rx="36" fill="#F2FBFA"/>
  <rect x="56" y="56" width="1488" height="788" rx="30" fill="#0F2D34"/>
  <rect x="110" y="110" width="1380" height="228" rx="28" fill="#D9F6F3"/>
  <rect x="110" y="370" width="412" height="420" rx="26" fill="#123C46"/>
  <rect x="554" y="370" width="430" height="420" rx="26" fill="#14505D"/>
  <rect x="1016" y="370" width="474" height="420" rx="26" fill="#0F766E"/>
  <circle cx="1300" cy="224" r="102" fill="#34D399"/>
  <rect x="164" y="164" width="504" height="30" rx="15" fill="#0F2D34"/>
  <rect x="164" y="220" width="418" height="20" rx="10" fill="#2C7A7B"/>
  <rect x="164" y="258" width="372" height="20" rx="10" fill="#2C7A7B"/>
  <rect x="164" y="294" width="198" height="52" rx="18" fill="#10B981"/>
  <rect x="152" y="428" width="330" height="22" rx="11" fill="#CFFAFE"/>
  <rect x="152" y="468" width="276" height="16" rx="8" fill="#7DD3FC"/>
  <rect x="152" y="500" width="298" height="16" rx="8" fill="#7DD3FC"/>
  <rect x="596" y="426" width="346" height="120" rx="24" fill="#E0F2FE"/>
  <rect x="596" y="576" width="346" height="162" rx="24" fill="#BAE6FD"/>
  <rect x="1060" y="426" width="388" height="312" rx="24" fill="#D1FAE5"/>
  <rect x="642" y="462" width="254" height="18" rx="9" fill="#0F2D34"/>
  <rect x="642" y="496" width="228" height="16" rx="8" fill="#155E75"/>
  <rect x="642" y="610" width="250" height="18" rx="9" fill="#0F2D34"/>
  <rect x="642" y="644" width="214" height="16" rx="8" fill="#155E75"/>
  <rect x="1104" y="470" width="304" height="18" rx="9" fill="#065F46"/>
  <rect x="1104" y="506" width="280" height="16" rx="8" fill="#047857"/>
  <rect x="1104" y="540" width="296" height="16" rx="8" fill="#047857"/>
  <text x="150" y="748" fill="#E6FFFB" font-family="Arial, sans-serif" font-size="54" font-weight="700">Clean and Healthy</text>
  <text x="150" y="796" fill="#BDEEE7" font-family="Arial, sans-serif" font-size="28">Delivered dental clinic platform with landing page and clinic management system</text>
</svg>
