<svg width="1600" height="900" viewBox="0 0 1600 900" fill="none" xmlns="http://www.w3.org/2000/svg">
  <rect width="1600" height="900" rx="36" fill="#F5F9F7"/>
  <rect x="56" y="56" width="1488" height="788" rx="30" fill="#102033"/>
  <rect x="110" y="112" width="1380" height="108" rx="24" fill="#16314D"/>
  <rect x="110" y="252" width="300" height="536" rx="26" fill="#183553"/>
  <rect x="442" y="252" width="1048" height="220" rx="26" fill="#17304D"/>
  <rect x="442" y="500" width="502" height="288" rx="26" fill="#256C57"/>
  <rect x="972" y="500" width="518" height="288" rx="26" fill="#1E4C88"/>
  <rect x="160" y="152" width="360" height="18" rx="9" fill="#537191"/>
  <rect x="1240" y="138" width="190" height="52" rx="18" fill="#F59E0B"/>
  <rect x="156" y="298" width="208" height="18" rx="9" fill="#6783A5"/>
  <rect x="156" y="336" width="168" height="18" rx="9" fill="#6783A5"/>
  <rect x="156" y="402" width="208" height="112" rx="24" fill="#0F2237"/>
  <rect x="156" y="542" width="208" height="188" rx="24" fill="#0F2237"/>
  <rect x="494" y="304" width="284" height="120" rx="24" fill="#244567"/>
  <rect x="806" y="304" width="284" height="120" rx="24" fill="#2B6B58"/>
  <rect x="1118" y="304" width="320" height="120" rx="24" fill="#305B9F"/>
  <rect x="496" y="560" width="390" height="20" rx="10" fill="#D1FAE5"/>
  <rect x="496" y="602" width="340" height="16" rx="8" fill="#B9E8D4"/>
  <rect x="496" y="636" width="362" height="16" rx="8" fill="#B9E8D4"/>
  <rect x="1026" y="560" width="410" height="20" rx="10" fill="#DBEAFE"/>
  <rect x="1026" y="602" width="354" height="16" rx="8" fill="#BDD5F8"/>
  <rect x="1026" y="636" width="386" height="16" rx="8" fill="#BDD5F8"/>
  <text x="150" y="744" fill="#E8F0F8" font-family="Arial, sans-serif" font-size="54" font-weight="700">Coaching Institute ERP</text>
  <text x="150" y="792" fill="#9FB3CA" font-family="Arial, sans-serif" font-size="28">Live enterprise ERP for admissions, attendance, fees, and batch operations</text>
</svg>
