<svg width="1600" height="900" viewBox="0 0 1600 900" fill="none" xmlns="http://www.w3.org/2000/svg">
  <rect width="1600" height="900" rx="36" fill="#F4F7FB"/>
  <rect x="56" y="56" width="1488" height="788" rx="30" fill="#0F172A"/>
  <rect x="112" y="112" width="370" height="676" rx="26" fill="#16213A"/>
  <rect x="518" y="112" width="970" height="154" rx="26" fill="#132034"/>
  <rect x="518" y="294" width="970" height="494" rx="26" fill="#16243B"/>
  <rect x="560" y="344" width="266" height="156" rx="24" fill="#233A5E"/>
  <rect x="854" y="344" width="266" height="156" rx="24" fill="#1B7858"/>
  <rect x="1148" y="344" width="298" height="156" rx="24" fill="#284C86"/>
  <rect x="560" y="534" width="886" height="208" rx="24" fill="#0F172A"/>
  <rect x="602" y="578" width="804" height="22" rx="11" fill="#324866"/>
  <rect x="602" y="622" width="712" height="18" rx="9" fill="#2C415D"/>
  <rect x="602" y="658" width="760" height="18" rx="9" fill="#2C415D"/>
  <rect x="602" y="694" width="645" height="18" rx="9" fill="#2C415D"/>
  <rect x="150" y="166" width="294" height="72" rx="22" fill="#203657"/>
  <rect x="150" y="266" width="220" height="18" rx="9" fill="#3A4F70"/>
  <rect x="150" y="304" width="252" height="18" rx="9" fill="#3A4F70"/>
  <rect x="150" y="388" width="292" height="132" rx="24" fill="#1A8D66"/>
  <rect x="150" y="548" width="292" height="176" rx="24" fill="#203657"/>
  <circle cx="1330" cy="188" r="38" fill="#1A8D66"/>
  <path d="M1284 187H1377" stroke="#DDF7EB" stroke-width="18" stroke-linecap="round"/>
  <text x="150" y="744" fill="#E5EDF7" font-family="Arial, sans-serif" font-size="54" font-weight="700">Inventory Management System</text>
  <text x="150" y="792" fill="#93A7C4" font-family="Arial, sans-serif" font-size="28">Live enterprise platform for stock operations, procurement, and warehouse visibility</text>
</svg>
