<svg width="1600" height="900" viewBox="0 0 1600 900" fill="none" xmlns="http://www.w3.org/2000/svg">
  <rect width="1600" height="900" rx="36" fill="#FFF7ED"/>
  <rect x="56" y="56" width="1488" height="788" rx="30" fill="#1F2937"/>
  <rect x="110" y="110" width="1380" height="260" rx="28" fill="#7C2D12"/>
  <rect x="110" y="400" width="430" height="390" rx="26" fill="#111827"/>
  <rect x="572" y="400" width="430" height="390" rx="26" fill="#2F1B0C"/>
  <rect x="1034" y="400" width="456" height="390" rx="26" fill="#1B4332"/>
  <circle cx="1288" cy="236" r="112" fill="#F59E0B"/>
  <rect x="170" y="172" width="520" height="28" rx="14" fill="#FED7AA"/>
  <rect x="170" y="224" width="430" height="20" rx="10" fill="#FDBA74"/>
  <rect x="170" y="264" width="376" height="20" rx="10" fill="#FDBA74"/>
  <rect x="170" y="312" width="188" height="54" rx="20" fill="#111827"/>
  <rect x="156" y="454" width="338" height="26" rx="13" fill="#374151"/>
  <rect x="156" y="504" width="290" height="18" rx="9" fill="#4B5563"/>
  <rect x="156" y="538" width="312" height="18" rx="9" fill="#4B5563"/>
  <rect x="618" y="454" width="338" height="26" rx="13" fill="#FDE68A"/>
  <rect x="618" y="504" width="278" height="18" rx="9" fill="#FCD34D"/>
  <rect x="618" y="538" width="300" height="18" rx="9" fill="#FCD34D"/>
  <rect x="1080" y="454" width="338" height="26" rx="13" fill="#D1FAE5"/>
  <rect x="1080" y="504" width="286" height="18" rx="9" fill="#A7F3D0"/>
  <rect x="1080" y="538" width="308" height="18" rx="9" fill="#A7F3D0"/>
  <text x="150" y="748" fill="#F9FAFB" font-family="Arial, sans-serif" font-size="54" font-weight="700">Restaurant Landing Page</text>
  <text x="150" y="796" fill="#D1D5DB" font-family="Arial, sans-serif" font-size="28">Live restaurant website with strong storytelling, menu highlights, and booking-first CTAs</text>
</svg>
