<svg width="640" height="760" viewBox="0 0 640 760" fill="none" xmlns="http://www.w3.org/2000/svg">
  <rect width="640" height="760" rx="56" fill="#0B1220"/>
  <rect x="22" y="22" width="596" height="716" rx="40" fill="url(#paint0_linear)"/>
  <circle cx="320" cy="252" r="122" fill="url(#paint1_radial)"/>
  <path d="M206 590C206 501.634 257.634 450 346 450H294C382.366 450 434 501.634 434 590V622H206V590Z" fill="#0F172A" fill-opacity="0.82"/>
  <path d="M251 262C251 223.892 281.892 193 320 193C358.108 193 389 223.892 389 262V308C389 346.108 358.108 377 320 377C281.892 377 251 346.108 251 308V262Z" fill="#E2E8F0"/>
  <path d="M246 242C246 193.399 285.399 154 334 154C382.601 154 422 193.399 422 242V254C402.799 253.567 383.513 248.775 366.173 239.964C348.833 231.153 333.885 218.57 322.5 203.096C312.366 220.436 297.47 234.537 279.569 243.765C261.668 252.992 241.522 257.02 221.438 255.397L218 255V242C218 193.399 257.399 154 306 154H334H246Z" fill="#38BDF8"/>
  <g filter="url(#filter0_d)">
    <rect x="124" y="84" width="124" height="44" rx="22" fill="#082F49" fill-opacity="0.92"/>
    <text x="186" y="112" text-anchor="middle" fill="#E0F2FE" font-family="Arial, sans-serif" font-size="20" font-weight="700">PROFILE</text>
  </g>
  <g filter="url(#filter1_d)">
    <circle cx="498" cy="170" r="56" fill="#111827" fill-opacity="0.84"/>
    <text x="498" y="183" text-anchor="middle" fill="#F8FAFC" font-family="Arial, sans-serif" font-size="36" font-weight="700">VB</text>
  </g>
  <defs>
    <filter id="filter0_d" x="110" y="76" width="152" height="72" filterUnits="userSpaceOnUse" color-interpolation-filters="sRGB">
      <feFlood flood-opacity="0" result="BackgroundImageFix"/>
      <feColorMatrix in="SourceAlpha" type="matrix" values="0 0 0 0 0 0 0 0 0 0 0 0 0 0 0 0 0 0 127 0" result="hardAlpha"/>
      <feOffset dy="6"/>
      <feGaussianBlur stdDeviation="7"/>
      <feComposite in2="hardAlpha" operator="out"/>
      <feColorMatrix type="matrix" values="0 0 0 0 0.027451 0 0 0 0 0.462745 0 0 0 0 0.729412 0 0 0 0.3 0"/>
      <feBlend mode="normal" in2="BackgroundImageFix" result="effect1_dropShadow"/>
      <feBlend mode="normal" in="SourceGraphic" in2="effect1_dropShadow" result="shape"/>
    </filter>
    <filter id="filter1_d" x="422" y="100" width="152" height="152" filterUnits="userSpaceOnUse" color-interpolation-filters="sRGB">
      <feFlood flood-opacity="0" result="BackgroundImageFix"/>
      <feColorMatrix in="SourceAlpha" type="matrix" values="0 0 0 0 0 0 0 0 0 0 0 0 0 0 0 0 0 0 127 0" result="hardAlpha"/>
      <feOffset dy="6"/>
      <feGaussianBlur stdDeviation="10"/>
      <feComposite in2="hardAlpha" operator="out"/>
      <feColorMatrix type="matrix" values="0 0 0 0 0.027451 0 0 0 0 0.462745 0 0 0 0 0.729412 0 0 0 0.28 0"/>
      <feBlend mode="normal" in2="BackgroundImageFix" result="effect1_dropShadow"/>
      <feBlend mode="normal" in="SourceGraphic" in2="effect1_dropShadow" result="shape"/>
    </filter>
    <linearGradient id="paint0_linear" x1="320" y1="22" x2="320" y2="738" gradientUnits="userSpaceOnUse">
      <stop stop-color="#0F172A"/>
      <stop offset="1" stop-color="#111827"/>
    </linearGradient>
    <radialGradient id="paint1_radial" cx="0" cy="0" r="1" gradientUnits="userSpaceOnUse" gradientTransform="translate(320 252) rotate(90) scale(122)">
      <stop stop-color="#E0F2FE"/>
      <stop offset="1" stop-color="#7DD3FC"/>
    </radialGradient>
  </defs>
</svg>
